<?xml version="1.0" standalone="no"?>
<!DOCTYPE svg PUBLIC "-//W3C//DTD SVG 20010904//EN"
 "http://www.w3.org/TR/2001/REC-SVG-20010904/DTD/svg10.dtd">
<svg version="1.0" xmlns="http://www.w3.org/2000/svg"
 width="1000.000000pt" height="1000.000000pt" viewBox="0 0 1000.000000 1000.000000"
 preserveAspectRatio="xMidYMid meet">
<metadata>
Created by potrace 1.14, written by Peter Selinger 2001-2017
</metadata>
<g transform="translate(0.000000,1000.000000) scale(0.100000,-0.100000)"
fill="#000000" stroke="none">
<path d="M8372 6124 c-77 -18 -146 -55 -242 -129 -186 -145 -349 -265 -358
-265 -6 0 -12 -4 -14 -9 -7 -21 -575 -384 -750 -480 -29 -16 -93 -51 -143 -78
-49 -28 -128 -71 -174 -97 -304 -173 -744 -361 -1306 -558 -226 -79 -275 -94
-585 -181 -306 -86 -640 -166 -900 -217 -30 -5 -66 -13 -80 -15 -112 -23 -181
-36 -215 -41 -22 -3 -78 -12 -125 -20 -47 -7 -112 -16 -145 -19 -33 -3 -76 -7
-95 -10 -52 -8 -106 -13 -195 -20 -44 -3 -100 -8 -125 -10 -25 -2 -76 -7 -115
-10 -90 -7 -188 -15 -245 -20 -25 -3 -103 -7 -175 -10 -71 -3 -155 -8 -185
-10 -30 -2 -104 -7 -165 -11 -60 -3 -126 -8 -145 -10 -19 -2 -132 -6 -250 -10
-233 -6 -286 -15 -381 -65 -100 -54 -195 -165 -233 -274 -24 -67 -31 -196 -17
-268 38 -178 180 -329 362 -381 79 -23 425 -24 599 -2 14 2 88 7 165 11 77 4
158 8 180 10 22 2 90 6 150 9 61 4 130 9 155 11 25 2 88 7 140 10 52 4 111 8
130 10 19 2 73 6 120 9 47 4 101 9 120 11 19 2 67 7 105 10 39 3 88 7 110 10
22 3 58 7 80 9 170 19 473 70 695 117 80 16 210 44 290 60 80 17 165 37 190
44 25 8 56 16 70 19 45 8 343 87 465 123 66 19 158 46 205 59 183 53 782 266
935 333 11 5 106 44 210 87 216 88 396 173 594 279 165 88 233 125 246 135 6
4 40 24 78 44 37 20 96 52 131 71 81 44 620 384 746 471 160 111 505 372 567
430 35 33 96 136 114 193 64 209 -3 421 -177 559 -101 81 -277 118 -412 86z"/>
</g>
</svg>
